<svg width="18" height="18" viewBox="0 0 18 18" fill="none" xmlns="http://www.w3.org/2000/svg">
<path d="M7.68755 8.4375H0.5625C0.251999 8.4375 0 8.1855 0 7.875C0 7.5645 0.251999 7.3125 0.5625 7.3125H7.68755C7.99805 7.3125 8.25005 7.5645 8.25005 7.875C8.25005 8.1855 7.99805 8.4375 7.68755 8.4375Z" fill="white"/>
<path d="M4.87505 11.25C4.73099 11.25 4.58707 11.1952 4.47748 11.0851C4.25775 10.8652 4.25775 10.509 4.47748 10.2892L6.89255 7.87431L4.47748 5.46007C4.25775 5.2402 4.25775 4.88397 4.47748 4.66425C4.6972 4.44452 5.05344 4.44452 5.2733 4.66425L8.0858 7.47675C8.30553 7.69647 8.30553 8.0527 8.0858 8.27257L5.2733 11.0851C5.16302 11.1952 5.01897 11.25 4.87505 11.25V11.25Z" fill="white"/>
<path d="M12 18C11.1727 18 10.5001 17.3272 10.5001 16.5V2.99997C10.5001 2.35878 10.9081 1.78653 11.5155 1.57573L16.0215 0.0734873C17.0295 -0.235503 18 0.512254 18 1.50006V15.0001C18 15.6406 17.592 16.212 16.9853 16.4235L12.4777 17.9265C12.3135 17.9775 12.1613 18 12 18V18ZM16.5 1.12502C16.4512 1.12502 16.41 1.13106 16.3658 1.14452L11.8786 2.64072C11.7315 2.6918 11.6251 2.84026 11.6251 2.99997V16.5C11.6251 16.7558 11.9025 16.9283 12.1343 16.8555L16.6215 15.3593C16.7678 15.3082 16.875 15.1598 16.875 15.0001V1.50006C16.875 1.29379 16.7071 1.12502 16.5 1.12502V1.12502Z" fill="white"/>
<path d="M6.56256 3.75005C6.25206 3.75005 6.00006 3.49805 6.00006 3.18755V2.06255C6.00006 0.924774 6.9247 0 8.06247 0H16.5C16.8105 0 17.0625 0.251999 17.0625 0.5625C17.0625 0.873001 16.8105 1.125 16.5 1.125H8.06247C7.5457 1.125 7.12506 1.54578 7.12506 2.06255V3.18755C7.12506 3.49805 6.87306 3.75005 6.56256 3.75005V3.75005Z" fill="white"/>
<path d="M11.0626 15.75H8.06247C6.9247 15.75 6.00006 14.8252 6.00006 13.6874V12.5624C6.00006 12.2519 6.25206 11.9999 6.56256 11.9999C6.87306 11.9999 7.12506 12.2519 7.12506 12.5624V13.6874C7.12506 14.2042 7.5457 14.625 8.06247 14.625H11.0626C11.3731 14.625 11.6251 14.877 11.6251 15.1875C11.6251 15.498 11.3731 15.75 11.0626 15.75Z" fill="white"/>
</svg>
