<svg width="22" height="19" viewBox="0 0 22 19" fill="none" xmlns="http://www.w3.org/2000/svg">
<path d="M21.6559 2.98076C21.3608 2.61562 20.9222 2.40623 20.4526 2.40623H3.68399L3.53424 1.33305C3.42819 0.573113 2.76957 0 2.0022 0H0.687495C0.307826 0 0 0.307826 0 0.687495C0 1.06716 0.307826 1.37499 0.687495 1.37499H2.0022C2.08745 1.37499 2.16067 1.43867 2.1724 1.5231L4.02816 14.8231C4.13421 15.5831 4.79283 16.1561 5.5602 16.1561H6.30566C6.22935 16.3713 6.18741 16.6026 6.18741 16.8436C6.18741 17.9809 7.11265 18.9061 8.2499 18.9061C9.38714 18.9061 10.3124 17.9809 10.3124 16.8436C10.3124 16.6026 10.2704 16.3713 10.1941 16.1561H13.8681C13.7918 16.3713 13.7499 16.6026 13.7499 16.8436C13.7499 17.9809 14.6751 18.9061 15.8123 18.9061C16.9496 18.9061 17.8748 17.9809 17.8748 16.8436C17.8748 16.6026 17.8329 16.3713 17.7566 16.1561H19.2499C19.6295 16.1561 19.9374 15.8483 19.9374 15.4686C19.9374 15.089 19.6295 14.7811 19.2499 14.7811H5.56025C5.475 14.7811 5.40178 14.7175 5.39005 14.633L5.21886 13.4062H18.7583C19.4827 13.4062 20.1188 12.892 20.271 12.1834L21.9652 4.27729C22.0637 3.81835 21.9509 3.34578 21.6559 2.98076V2.98076ZM8.93744 16.8436C8.93744 17.2227 8.62901 17.5311 8.24994 17.5311C7.87087 17.5311 7.56245 17.2227 7.56245 16.8436C7.56245 16.4646 7.87087 16.1561 8.24994 16.1561C8.62901 16.1561 8.93744 16.4645 8.93744 16.8436ZM16.4999 16.8436C16.4999 17.2227 16.1915 17.5311 15.8124 17.5311C15.4333 17.5311 15.1249 17.2227 15.1249 16.8436C15.1249 16.4646 15.4333 16.1561 15.8124 16.1561C16.1915 16.1561 16.4999 16.4645 16.4999 16.8436ZM20.6208 3.98906L18.9266 11.895C18.9097 11.9738 18.8389 12.0311 18.7583 12.0311H5.02696L3.87584 3.78118H20.4525C20.5206 3.78118 20.5629 3.8159 20.5865 3.84503C20.61 3.87412 20.635 3.92272 20.6208 3.98906V3.98906Z" fill="black"/>
</svg>
