<svg width="22" height="22" viewBox="0 0 22 22" fill="none" xmlns="http://www.w3.org/2000/svg">
<path d="M21.7312 20.435L15.475 14.1788C16.6868 12.682 17.4165 10.7799 17.4165 8.70825C17.4165 3.9068 13.5097 0 8.70821 0C3.90676 0 0 3.90676 0 8.70821C0 13.5097 3.90681 17.4165 8.70825 17.4165C10.7799 17.4165 12.682 16.6868 14.1788 15.475L20.435 21.7312C20.6138 21.9099 20.8484 21.9998 21.0831 21.9998C21.3178 21.9998 21.5525 21.9099 21.7312 21.7312C22.0896 21.3728 22.0896 20.7934 21.7312 20.435ZM8.70825 15.5831C4.91695 15.5831 1.83333 12.4995 1.83333 8.70821C1.83333 4.9169 4.91695 1.83328 8.70825 1.83328C12.4996 1.83328 15.5832 4.9169 15.5832 8.70821C15.5832 12.4995 12.4995 15.5831 8.70825 15.5831Z" fill="black"/>
</svg>
