<svg width="22" height="20" viewBox="0 0 22 20" fill="none" xmlns="http://www.w3.org/2000/svg">
<path d="M11 19.5729C10.6868 19.5729 10.3848 19.4595 10.1495 19.2534C9.26077 18.4762 8.40392 17.7459 7.64793 17.1017L7.64407 17.0984C5.42766 15.2096 3.5137 13.5785 2.18201 11.9717C0.693375 10.1754 0 8.47223 0 6.61165C0 4.80394 0.619858 3.13622 1.74527 1.91547C2.88411 0.680283 4.44676 0 6.14587 0C7.4158 0 8.57881 0.401489 9.60251 1.19322C10.1191 1.59286 10.5874 2.08197 11 2.65248C11.4127 2.08197 11.8809 1.59286 12.3977 1.19322C13.4214 0.401489 14.5844 0 15.8543 0C17.5532 0 19.1161 0.680283 20.2549 1.91547C21.3803 3.13622 22 4.80394 22 6.61165C22 8.47223 21.3068 10.1754 19.8182 11.9715C18.4865 13.5785 16.5727 15.2094 14.3566 17.098C13.5993 17.7432 12.7411 18.4747 11.8503 19.2537C11.6152 19.4595 11.313 19.5729 11 19.5729V19.5729ZM6.14587 1.28873C4.81099 1.28873 3.5847 1.82147 2.6926 2.78894C1.78723 3.77101 1.28856 5.12856 1.28856 6.61165C1.28856 8.17648 1.87015 9.57599 3.17415 11.1494C4.43451 12.6702 6.30919 14.2678 8.47978 16.1176L8.48381 16.121C9.24265 16.7677 10.1029 17.5009 10.9982 18.2837C11.8988 17.4994 12.7604 16.765 13.5207 16.1173C15.6911 14.2675 17.5657 12.6702 18.826 11.1494C20.1299 9.57599 20.7114 8.17648 20.7114 6.61165C20.7114 5.12856 20.2128 3.77101 19.3074 2.78894C18.4155 1.82147 17.189 1.28873 15.8543 1.28873C14.8764 1.28873 13.9786 1.59958 13.1859 2.21255C12.4794 2.75906 11.9873 3.44992 11.6987 3.93332C11.5504 4.1819 11.2892 4.33028 11 4.33028C10.7108 4.33028 10.4496 4.1819 10.3013 3.93332C10.0129 3.44992 9.52077 2.75906 8.81413 2.21255C8.02139 1.59958 7.12358 1.28873 6.14587 1.28873V1.28873Z" fill="black"/>
</svg>
